<svg width="593" height="46" viewBox="0 0 593 46" fill="none" xmlns="http://www.w3.org/2000/svg">
<rect width="593" height="45.54" rx="4" fill="white"/>
<path d="M28.7475 29.3137L23.6775 24.2437C25.3975 22.1037 25.2875 18.9837 23.3075 16.9937C21.1775 14.8637 17.7275 14.8637 15.5975 16.9937C13.4675 19.1237 13.4675 22.5737 15.5975 24.7037C17.5875 26.6937 20.7075 26.7937 22.8475 25.0737L27.9175 30.1437L28.7475 29.3137ZM16.1075 24.1837C14.2575 22.3437 14.2575 19.3437 16.1075 17.5037C17.9575 15.6637 20.9475 15.6537 22.7975 17.5037C24.6475 19.3537 24.6475 22.3437 22.7975 24.1937C20.9475 26.0437 17.9575 26.0437 16.1075 24.1937V24.1837Z" fill="#666666"/>
<path d="M39.0276 10H38.7476V35.54H39.0276V10Z" fill="#666666"/>
<path d="M52.1046 16.656C52.2406 16.656 52.3086 16.7297 52.3086 16.877V28.981C52.3086 29.0944 52.2859 29.1737 52.2406 29.219C52.1953 29.253 52.1159 29.27 52.0026 29.27H50.9316C50.8296 29.27 50.7616 29.253 50.7276 29.219C50.6936 29.185 50.6766 29.1227 50.6766 29.032V16.894C50.6766 16.7354 50.7446 16.656 50.8806 16.656H52.1046ZM55.5053 29.27C55.3466 29.27 55.2673 29.1964 55.2673 29.049V20.481C55.2673 20.3337 55.3296 20.26 55.4543 20.26H56.4743C56.5989 20.26 56.6613 20.3224 56.6613 20.447V21.433C56.6613 21.4897 56.6726 21.5237 56.6953 21.535C56.7179 21.5464 56.7576 21.5294 56.8143 21.484C57.1883 21.1894 57.5339 20.94 57.8513 20.736C58.1799 20.5207 58.5143 20.362 58.8543 20.26C59.1943 20.1467 59.5569 20.09 59.9423 20.09C60.8263 20.09 61.5006 20.328 61.9653 20.804C62.4413 21.28 62.6793 21.8977 62.6793 22.657V28.998C62.6793 29.1794 62.5943 29.27 62.4243 29.27H61.4723C61.3929 29.27 61.3363 29.253 61.3023 29.219C61.2683 29.1737 61.2513 29.117 61.2513 29.049V22.98C61.2513 22.4247 61.1096 21.994 60.8263 21.688C60.5429 21.3707 60.0953 21.212 59.4833 21.212C59.1546 21.212 58.8429 21.2687 58.5483 21.382C58.2649 21.484 57.9759 21.637 57.6813 21.841C57.3866 22.0337 57.0579 22.283 56.6953 22.589V29.015C56.6953 29.185 56.6103 29.27 56.4403 29.27H55.5053ZM73.338 20.107C73.4513 20.107 73.5307 20.1297 73.576 20.175C73.6327 20.2204 73.661 20.2884 73.661 20.379V20.974C73.661 21.076 73.6327 21.1554 73.576 21.212C73.5307 21.2687 73.4457 21.2914 73.321 21.28C73.1397 21.28 72.981 21.2914 72.845 21.314C72.709 21.3367 72.573 21.3764 72.437 21.433C72.165 21.535 72.0517 21.6654 72.097 21.824C72.1537 21.9487 72.216 22.1017 72.284 22.283C72.352 22.453 72.386 22.6854 72.386 22.98C72.386 23.4787 72.2557 23.9377 71.995 24.357C71.7343 24.765 71.3263 25.0937 70.771 25.343C70.227 25.5924 69.5357 25.717 68.697 25.717C68.119 25.717 67.6657 25.751 67.337 25.819C67.0083 25.887 66.776 25.9777 66.64 26.091C66.504 26.2044 66.436 26.3234 66.436 26.448C66.436 26.6294 66.555 26.7597 66.793 26.839C67.0423 26.9184 67.439 26.975 67.983 27.009L70.176 27.128C71.1733 27.1847 71.9043 27.4227 72.369 27.842C72.8337 28.2614 73.066 28.811 73.066 29.491C73.066 30.341 72.6863 31.0097 71.927 31.497C71.179 31.9957 70.108 32.245 68.714 32.245C67.2747 32.245 66.1753 32.0354 65.416 31.616C64.668 31.208 64.294 30.6187 64.294 29.848C64.294 29.4514 64.43 29.0944 64.702 28.777C64.9853 28.4597 65.382 28.1764 65.892 27.927C66.0167 27.8704 66.0167 27.808 65.892 27.74C65.6427 27.6267 65.45 27.4907 65.314 27.332C65.178 27.162 65.11 26.9637 65.11 26.737C65.11 26.5784 65.161 26.4197 65.263 26.261C65.365 26.1024 65.5123 25.955 65.705 25.819C65.909 25.683 66.1527 25.564 66.436 25.462C66.504 25.4394 66.538 25.411 66.538 25.377C66.538 25.343 66.5097 25.3034 66.453 25.258C65.9543 25.0087 65.586 24.697 65.348 24.323C65.11 23.949 64.991 23.5014 64.991 22.98C64.991 22.096 65.3253 21.399 65.994 20.889C66.6627 20.379 67.609 20.124 68.833 20.124C69.4223 20.124 69.921 20.192 70.329 20.328C70.7483 20.464 71.0997 20.651 71.383 20.889C71.451 20.9457 71.5133 20.974 71.57 20.974C71.6267 20.974 71.6833 20.9457 71.74 20.889C71.876 20.7644 72.029 20.6454 72.199 20.532C72.369 20.4074 72.5503 20.3054 72.743 20.226C72.947 20.1467 73.1453 20.107 73.338 20.107ZM68.697 24.816C69.4903 24.816 70.0797 24.6574 70.465 24.34C70.8503 24.0114 71.043 23.5524 71.043 22.963C71.043 22.3624 70.8503 21.892 70.465 21.552C70.0797 21.2007 69.4903 21.025 68.697 21.025C67.9377 21.025 67.3483 21.2007 66.929 21.552C66.521 21.892 66.317 22.3624 66.317 22.963C66.317 23.5524 66.521 24.0114 66.929 24.34C67.3483 24.6574 67.9377 24.816 68.697 24.816ZM67.201 28.165C66.997 28.1537 66.7703 28.216 66.521 28.352C66.2717 28.4767 66.0507 28.6524 65.858 28.879C65.6653 29.1057 65.569 29.372 65.569 29.678C65.569 30.0294 65.688 30.3297 65.926 30.579C66.1753 30.8397 66.5437 31.0324 67.031 31.157C67.5297 31.293 68.1417 31.361 68.867 31.361C69.8077 31.361 70.5217 31.2194 71.009 30.936C71.4963 30.664 71.74 30.239 71.74 29.661C71.74 29.287 71.6097 28.981 71.349 28.743C71.0997 28.505 70.6633 28.369 70.04 28.335L67.201 28.165ZM75.6595 29.27C75.5802 29.27 75.5179 29.253 75.4725 29.219C75.4385 29.1737 75.4215 29.117 75.4215 29.049V20.481C75.4215 20.3337 75.4839 20.26 75.6085 20.26H76.5945C76.7192 20.26 76.7815 20.3224 76.7815 20.447V21.552C76.7815 21.62 76.7985 21.6597 76.8325 21.671C76.8665 21.6824 76.9119 21.6597 76.9685 21.603C77.2632 21.2517 77.5522 20.9684 77.8355 20.753C78.1302 20.5264 78.4249 20.362 78.7195 20.26C79.0142 20.1467 79.3089 20.09 79.6035 20.09C80.0002 20.09 80.1985 20.1637 80.1985 20.311V21.331C80.1985 21.4444 80.1475 21.4897 80.0455 21.467C79.9435 21.4557 79.8245 21.4444 79.6885 21.433C79.5639 21.4217 79.4279 21.416 79.2805 21.416C79.0312 21.416 78.7649 21.4727 78.4815 21.586C78.1982 21.688 77.9319 21.8354 77.6825 22.028C77.4445 22.2207 77.2462 22.436 77.0875 22.674C76.9289 22.912 76.8495 23.15 76.8495 23.388V29.015C76.8495 29.185 76.7645 29.27 76.5945 29.27H75.6595ZM82.6655 25.326C82.6655 25.8814 82.7959 26.3914 83.0565 26.856C83.3285 27.3094 83.6855 27.672 84.1275 27.944C84.5809 28.216 85.0852 28.352 85.6405 28.352C86.2072 28.352 86.7115 28.2387 87.1535 28.012C87.5955 27.774 87.9752 27.417 88.2925 26.941C88.3379 26.8957 88.3719 26.873 88.3945 26.873C88.4285 26.8617 88.4739 26.8674 88.5305 26.89L89.2445 27.247C89.3465 27.3037 89.3579 27.383 89.2785 27.485C88.9725 27.9384 88.6325 28.3124 88.2585 28.607C87.8959 28.8904 87.4879 29.1 87.0345 29.236C86.5812 29.372 86.0712 29.44 85.5045 29.44C84.6659 29.44 83.9235 29.2474 83.2775 28.862C82.6315 28.4767 82.1215 27.9384 81.7475 27.247C81.3735 26.5557 81.1865 25.7567 81.1865 24.85C81.1865 23.864 81.3735 23.0197 81.7475 22.317C82.1329 21.603 82.6485 21.0534 83.2945 20.668C83.9519 20.2827 84.6829 20.09 85.4875 20.09C86.3149 20.09 87.0345 20.2714 87.6465 20.634C88.2585 20.9967 88.7345 21.5237 89.0745 22.215C89.4145 22.9064 89.5845 23.7394 89.5845 24.714C89.5845 24.7934 89.5732 24.8727 89.5505 24.952C89.5392 25.0314 89.4655 25.071 89.3295 25.071H82.8185C82.7732 25.071 82.7335 25.0994 82.6995 25.156C82.6769 25.2014 82.6655 25.258 82.6655 25.326ZM87.8675 24.136C87.9922 24.136 88.0715 24.1247 88.1055 24.102C88.1395 24.068 88.1565 24 88.1565 23.898C88.1565 23.4107 88.0489 22.9574 87.8335 22.538C87.6295 22.1074 87.3292 21.7617 86.9325 21.501C86.5472 21.2404 86.0769 21.11 85.5215 21.11C84.9095 21.11 84.3939 21.2574 83.9745 21.552C83.5552 21.8354 83.2379 22.2094 83.0225 22.674C82.8072 23.1387 82.6995 23.626 82.6995 24.136H87.8675ZM96.9975 22.249C96.7708 21.909 96.4535 21.6314 96.0455 21.416C95.6375 21.2007 95.1501 21.093 94.5835 21.093C93.9715 21.093 93.4615 21.2234 93.0535 21.484C92.6568 21.7447 92.4585 22.096 92.4585 22.538C92.4585 22.776 92.5491 23.0027 92.7305 23.218C92.9118 23.422 93.2801 23.6147 93.8355 23.796L95.9945 24.442C96.7765 24.6574 97.3375 24.969 97.6775 25.377C98.0288 25.785 98.2045 26.2554 98.2045 26.788C98.2045 27.3207 98.0458 27.7854 97.7285 28.182C97.4111 28.5787 96.9748 28.8904 96.4195 29.117C95.8641 29.3324 95.2351 29.44 94.5325 29.44C93.6371 29.44 92.8551 29.2644 92.1865 28.913C91.5178 28.5504 91.0418 28.1027 90.7585 27.57C90.7245 27.5134 90.7075 27.4624 90.7075 27.417C90.7075 27.3717 90.7358 27.332 90.7925 27.298L91.4555 26.924C91.5121 26.89 91.5631 26.8787 91.6085 26.89C91.6538 26.89 91.6878 26.907 91.7105 26.941C91.9031 27.2357 92.1241 27.4907 92.3735 27.706C92.6341 27.9214 92.9401 28.0914 93.2915 28.216C93.6541 28.3407 94.0735 28.403 94.5495 28.403C94.9801 28.3917 95.3711 28.3294 95.7225 28.216C96.0738 28.1027 96.3515 27.9384 96.5555 27.723C96.7595 27.4964 96.8615 27.2357 96.8615 26.941C96.8615 26.635 96.7368 26.3744 96.4875 26.159C96.2381 25.9324 95.8075 25.734 95.1955 25.564L93.4445 25.071C92.5945 24.8444 91.9938 24.5384 91.6425 24.153C91.3025 23.7677 91.1268 23.3144 91.1155 22.793C91.1155 22.249 91.2628 21.7787 91.5575 21.382C91.8521 20.974 92.2601 20.6567 92.7815 20.43C93.3141 20.2034 93.9205 20.09 94.6005 20.09C95.3598 20.09 96.0341 20.2374 96.6235 20.532C97.2241 20.8154 97.6775 21.195 97.9835 21.671C98.0175 21.7164 98.0345 21.7617 98.0345 21.807C98.0345 21.841 98.0118 21.875 97.9665 21.909L97.2525 22.3C97.2071 22.3227 97.1618 22.334 97.1165 22.334C97.0825 22.3227 97.0428 22.2944 96.9975 22.249ZM105.476 28.182C105.056 28.59 104.597 28.9017 104.099 29.117C103.611 29.3324 103.062 29.44 102.45 29.44C101.566 29.44 100.869 29.2134 100.359 28.76C99.86 28.3067 99.6107 27.7117 99.6107 26.975C99.6107 26.3744 99.7807 25.8587 100.121 25.428C100.461 24.986 100.965 24.6404 101.634 24.391C102.302 24.1304 103.124 23.9717 104.099 23.915L105.425 23.813C105.493 23.8017 105.555 23.779 105.612 23.745C105.668 23.711 105.697 23.6487 105.697 23.558V23.099C105.697 22.487 105.504 22.0054 105.119 21.654C104.745 21.2914 104.235 21.11 103.589 21.11C103.09 21.11 102.637 21.2234 102.229 21.45C101.832 21.6767 101.475 22.0167 101.158 22.47C101.112 22.5267 101.073 22.5664 101.039 22.589C101.016 22.6004 100.971 22.5947 100.903 22.572L99.9847 22.266C99.9507 22.2434 99.9224 22.215 99.8997 22.181C99.8884 22.147 99.9054 22.0847 99.9507 21.994C100.291 21.4047 100.767 20.94 101.379 20.6C102.002 20.26 102.761 20.09 103.657 20.09C104.416 20.09 105.045 20.209 105.544 20.447C106.054 20.6737 106.433 21.008 106.683 21.45C106.943 21.8807 107.074 22.3964 107.074 22.997V29.015C107.074 29.117 107.057 29.185 107.023 29.219C106.989 29.253 106.932 29.27 106.853 29.27H105.986C105.906 29.27 105.85 29.2474 105.816 29.202C105.782 29.1454 105.759 29.0774 105.748 28.998L105.731 28.216C105.697 28.0574 105.612 28.046 105.476 28.182ZM105.697 24.952C105.697 24.7594 105.617 24.6687 105.459 24.68L104.337 24.782C103.815 24.8047 103.351 24.8727 102.943 24.986C102.535 25.088 102.189 25.224 101.906 25.394C101.622 25.564 101.407 25.768 101.26 26.006C101.112 26.2327 101.039 26.499 101.039 26.805C101.039 27.3037 101.209 27.6947 101.549 27.978C101.9 28.25 102.37 28.386 102.96 28.386C103.322 28.386 103.668 28.3237 103.997 28.199C104.337 28.063 104.631 27.893 104.881 27.689C105.141 27.4737 105.34 27.2527 105.476 27.026C105.623 26.7994 105.697 26.5784 105.697 26.363V24.952ZM115.62 21.331C115.529 21.331 115.484 21.3764 115.484 21.467V26.856C115.484 27.3887 115.575 27.7457 115.756 27.927C115.937 28.1084 116.209 28.199 116.572 28.199H117.745C117.802 28.199 117.847 28.216 117.881 28.25C117.915 28.2727 117.932 28.318 117.932 28.386L117.915 28.964C117.915 29.0774 117.847 29.151 117.711 29.185C117.598 29.2077 117.433 29.2247 117.218 29.236C117.014 29.2474 116.81 29.2587 116.606 29.27C116.413 29.27 116.249 29.27 116.113 29.27C115.399 29.27 114.878 29.1057 114.549 28.777C114.22 28.437 114.056 27.9044 114.056 27.179V21.501C114.056 21.3877 113.999 21.331 113.886 21.331H112.526C112.401 21.331 112.339 21.2687 112.339 21.144V20.43C112.339 20.3167 112.396 20.26 112.509 20.26H113.954C114.033 20.26 114.073 20.2147 114.073 20.124L114.26 17.421C114.271 17.2737 114.334 17.2 114.447 17.2H115.297C115.433 17.2 115.501 17.2794 115.501 17.438V20.124C115.501 20.2147 115.546 20.26 115.637 20.26H117.779C117.904 20.26 117.966 20.311 117.966 20.413V21.144C117.966 21.2687 117.904 21.331 117.779 21.331H115.62ZM122.874 28.318C123.361 28.318 123.826 28.1877 124.268 27.927C124.721 27.655 125.169 27.2924 125.611 26.839V20.515C125.611 20.345 125.702 20.26 125.883 20.26H126.818C126.977 20.26 127.056 20.3394 127.056 20.498L127.022 29.049C127.022 29.1964 126.96 29.27 126.835 29.27H125.849C125.724 29.27 125.662 29.2077 125.662 29.083V28.08C125.662 28.0234 125.651 27.9894 125.628 27.978C125.605 27.9667 125.566 27.9837 125.509 28.029C124.886 28.5617 124.33 28.93 123.843 29.134C123.367 29.338 122.891 29.44 122.415 29.44C121.894 29.44 121.429 29.3324 121.021 29.117C120.613 28.9017 120.29 28.6014 120.052 28.216C119.814 27.8194 119.695 27.3604 119.695 26.839V20.532C119.695 20.3507 119.78 20.26 119.95 20.26H120.902C121.049 20.26 121.123 20.3394 121.123 20.498V26.465C121.123 27.0204 121.276 27.468 121.582 27.808C121.899 28.148 122.33 28.318 122.874 28.318ZM134.247 25.326C134.247 25.8814 134.377 26.3914 134.638 26.856C134.91 27.3094 135.267 27.672 135.709 27.944C136.162 28.216 136.666 28.352 137.222 28.352C137.788 28.352 138.293 28.2387 138.735 28.012C139.177 27.774 139.556 27.417 139.874 26.941C139.919 26.8957 139.953 26.873 139.976 26.873C140.01 26.8617 140.055 26.8674 140.112 26.89L140.826 27.247C140.928 27.3037 140.939 27.383 140.86 27.485C140.554 27.9384 140.214 28.3124 139.84 28.607C139.477 28.8904 139.069 29.1 138.616 29.236C138.162 29.372 137.652 29.44 137.086 29.44C136.247 29.44 135.505 29.2474 134.859 28.862C134.213 28.4767 133.703 27.9384 133.329 27.247C132.955 26.5557 132.768 25.7567 132.768 24.85C132.768 23.864 132.955 23.0197 133.329 22.317C133.714 21.603 134.23 21.0534 134.876 20.668C135.533 20.2827 136.264 20.09 137.069 20.09C137.896 20.09 138.616 20.2714 139.228 20.634C139.84 20.9967 140.316 21.5237 140.656 22.215C140.996 22.9064 141.166 23.7394 141.166 24.714C141.166 24.7934 141.154 24.8727 141.132 24.952C141.12 25.0314 141.047 25.071 140.911 25.071H134.4C134.354 25.071 134.315 25.0994 134.281 25.156C134.258 25.2014 134.247 25.258 134.247 25.326ZM139.449 24.136C139.573 24.136 139.653 24.1247 139.687 24.102C139.721 24.068 139.738 24 139.738 23.898C139.738 23.4107 139.63 22.9574 139.415 22.538C139.211 22.1074 138.91 21.7617 138.514 21.501C138.128 21.2404 137.658 21.11 137.103 21.11C136.491 21.11 135.975 21.2574 135.556 21.552C135.136 21.8354 134.819 22.2094 134.604 22.674C134.388 23.1387 134.281 23.626 134.281 24.136H139.449ZM148.579 22.249C148.352 21.909 148.035 21.6314 147.627 21.416C147.219 21.2007 146.731 21.093 146.165 21.093C145.553 21.093 145.043 21.2234 144.635 21.484C144.238 21.7447 144.04 22.096 144.04 22.538C144.04 22.776 144.13 23.0027 144.312 23.218C144.493 23.422 144.861 23.6147 145.417 23.796L147.576 24.442C148.358 24.6574 148.919 24.969 149.259 25.377C149.61 25.785 149.786 26.2554 149.786 26.788C149.786 27.3207 149.627 27.7854 149.31 28.182C148.992 28.5787 148.556 28.8904 148.001 29.117C147.445 29.3324 146.816 29.44 146.114 29.44C145.218 29.44 144.436 29.2644 143.768 28.913C143.099 28.5504 142.623 28.1027 142.34 27.57C142.306 27.5134 142.289 27.4624 142.289 27.417C142.289 27.3717 142.317 27.332 142.374 27.298L143.037 26.924C143.093 26.89 143.144 26.8787 143.19 26.89C143.235 26.89 143.269 26.907 143.292 26.941C143.484 27.2357 143.705 27.4907 143.955 27.706C144.215 27.9214 144.521 28.0914 144.873 28.216C145.235 28.3407 145.655 28.403 146.131 28.403C146.561 28.3917 146.952 28.3294 147.304 28.216C147.655 28.1027 147.933 27.9384 148.137 27.723C148.341 27.4964 148.443 27.2357 148.443 26.941C148.443 26.635 148.318 26.3744 148.069 26.159C147.819 25.9324 147.389 25.734 146.777 25.564L145.026 25.071C144.176 24.8444 143.575 24.5384 143.224 24.153C142.884 23.7677 142.708 23.3144 142.697 22.793C142.697 22.249 142.844 21.7787 143.139 21.382C143.433 20.974 143.841 20.6567 144.363 20.43C144.895 20.2034 145.502 20.09 146.182 20.09C146.941 20.09 147.615 20.2374 148.205 20.532C148.805 20.8154 149.259 21.195 149.565 21.671C149.599 21.7164 149.616 21.7617 149.616 21.807C149.616 21.841 149.593 21.875 149.548 21.909L148.834 22.3C148.788 22.3227 148.743 22.334 148.698 22.334C148.664 22.3227 148.624 22.2944 148.579 22.249ZM154.036 21.331C153.945 21.331 153.9 21.3764 153.9 21.467V26.856C153.9 27.3887 153.991 27.7457 154.172 27.927C154.353 28.1084 154.625 28.199 154.988 28.199H156.161C156.218 28.199 156.263 28.216 156.297 28.25C156.331 28.2727 156.348 28.318 156.348 28.386L156.331 28.964C156.331 29.0774 156.263 29.151 156.127 29.185C156.014 29.2077 155.849 29.2247 155.634 29.236C155.43 29.2474 155.226 29.2587 155.022 29.27C154.829 29.27 154.665 29.27 154.529 29.27C153.815 29.27 153.294 29.1057 152.965 28.777C152.636 28.437 152.472 27.9044 152.472 27.179V21.501C152.472 21.3877 152.415 21.331 152.302 21.331H150.942C150.817 21.331 150.755 21.2687 150.755 21.144V20.43C150.755 20.3167 150.812 20.26 150.925 20.26H152.37C152.449 20.26 152.489 20.2147 152.489 20.124L152.676 17.421C152.687 17.2737 152.75 17.2 152.863 17.2H153.713C153.849 17.2 153.917 17.2794 153.917 17.438V20.124C153.917 20.2147 153.962 20.26 154.053 20.26H156.195C156.32 20.26 156.382 20.311 156.382 20.413V21.144C156.382 21.2687 156.32 21.331 156.195 21.331H154.036ZM163.415 28.182C162.996 28.59 162.537 28.9017 162.038 29.117C161.551 29.3324 161.001 29.44 160.389 29.44C159.505 29.44 158.808 29.2134 158.298 28.76C157.799 28.3067 157.55 27.7117 157.55 26.975C157.55 26.3744 157.72 25.8587 158.06 25.428C158.4 24.986 158.904 24.6404 159.573 24.391C160.242 24.1304 161.063 23.9717 162.038 23.915L163.364 23.813C163.432 23.8017 163.494 23.779 163.551 23.745C163.608 23.711 163.636 23.6487 163.636 23.558V23.099C163.636 22.487 163.443 22.0054 163.058 21.654C162.684 21.2914 162.174 21.11 161.528 21.11C161.029 21.11 160.576 21.2234 160.168 21.45C159.771 21.6767 159.414 22.0167 159.097 22.47C159.052 22.5267 159.012 22.5664 158.978 22.589C158.955 22.6004 158.91 22.5947 158.842 22.572L157.924 22.266C157.89 22.2434 157.862 22.215 157.839 22.181C157.828 22.147 157.845 22.0847 157.89 21.994C158.23 21.4047 158.706 20.94 159.318 20.6C159.941 20.26 160.701 20.09 161.596 20.09C162.355 20.09 162.984 20.209 163.483 20.447C163.993 20.6737 164.373 21.008 164.622 21.45C164.883 21.8807 165.013 22.3964 165.013 22.997V29.015C165.013 29.117 164.996 29.185 164.962 29.219C164.928 29.253 164.871 29.27 164.792 29.27H163.925C163.846 29.27 163.789 29.2474 163.755 29.202C163.721 29.1454 163.698 29.0774 163.687 28.998L163.67 28.216C163.636 28.0574 163.551 28.046 163.415 28.182ZM163.636 24.952C163.636 24.7594 163.557 24.6687 163.398 24.68L162.276 24.782C161.755 24.8047 161.29 24.8727 160.882 24.986C160.474 25.088 160.128 25.224 159.845 25.394C159.562 25.564 159.346 25.768 159.199 26.006C159.052 26.2327 158.978 26.499 158.978 26.805C158.978 27.3037 159.148 27.6947 159.488 27.978C159.839 28.25 160.31 28.386 160.899 28.386C161.262 28.386 161.607 28.3237 161.936 28.199C162.276 28.063 162.571 27.893 162.82 27.689C163.081 27.4737 163.279 27.2527 163.415 27.026C163.562 26.7994 163.636 26.5784 163.636 26.363V24.952ZM173.953 29.27C173.873 29.27 173.811 29.253 173.766 29.219C173.732 29.1737 173.715 29.1114 173.715 29.032V28.318C173.715 28.2274 173.692 28.1764 173.647 28.165C173.613 28.1537 173.562 28.182 173.494 28.25C173.369 28.3634 173.188 28.5164 172.95 28.709C172.723 28.9017 172.434 29.0717 172.083 29.219C171.731 29.3664 171.312 29.44 170.825 29.44C170.111 29.44 169.47 29.27 168.904 28.93C168.337 28.59 167.884 28.0857 167.544 27.417C167.215 26.737 167.051 25.8984 167.051 24.901C167.051 23.9377 167.215 23.099 167.544 22.385C167.884 21.6597 168.354 21.0987 168.955 20.702C169.567 20.294 170.258 20.09 171.029 20.09C171.584 20.09 172.049 20.1807 172.423 20.362C172.797 20.5434 173.125 20.753 173.409 20.991C173.511 21.0704 173.579 21.1044 173.613 21.093C173.658 21.0704 173.681 20.9967 173.681 20.872V16.877C173.681 16.7297 173.743 16.656 173.868 16.656H174.905C175.029 16.656 175.092 16.7297 175.092 16.877V28.998C175.092 29.1 175.075 29.1737 175.041 29.219C175.007 29.253 174.933 29.27 174.82 29.27H173.953ZM173.664 22.249C173.312 21.8977 172.955 21.6257 172.593 21.433C172.23 21.2404 171.822 21.144 171.369 21.144C170.825 21.144 170.332 21.2857 169.89 21.569C169.459 21.841 169.119 22.2547 168.87 22.81C168.632 23.3654 168.513 24.0454 168.513 24.85C168.513 25.6774 168.637 26.3574 168.887 26.89C169.136 27.4114 169.47 27.7967 169.89 28.046C170.309 28.284 170.768 28.403 171.267 28.403C171.731 28.403 172.139 28.2954 172.491 28.08C172.853 27.8647 173.137 27.5984 173.341 27.281C173.556 26.9637 173.664 26.652 173.664 26.346V22.249ZM181.494 29.44C180.644 29.44 179.891 29.2474 179.233 28.862C178.587 28.4654 178.083 27.9214 177.72 27.23C177.369 26.5274 177.193 25.7227 177.193 24.816C177.193 23.8754 177.375 23.0537 177.737 22.351C178.111 21.637 178.621 21.0817 179.267 20.685C179.913 20.2884 180.661 20.09 181.511 20.09C182.373 20.09 183.121 20.294 183.755 20.702C184.401 21.0987 184.9 21.654 185.251 22.368C185.614 23.0707 185.795 23.881 185.795 24.799C185.795 25.7057 185.614 26.5104 185.251 27.213C184.889 27.9044 184.384 28.4484 183.738 28.845C183.104 29.2417 182.356 29.44 181.494 29.44ZM181.528 28.369C182.118 28.369 182.622 28.2274 183.041 27.944C183.461 27.6494 183.778 27.2357 183.993 26.703C184.22 26.159 184.333 25.513 184.333 24.765C184.333 24.017 184.22 23.3767 183.993 22.844C183.767 22.3 183.444 21.8807 183.024 21.586C182.605 21.2914 182.101 21.144 181.511 21.144C180.933 21.144 180.429 21.2914 179.998 21.586C179.568 21.8807 179.233 22.3 178.995 22.844C178.769 23.3767 178.655 24.017 178.655 24.765C178.655 25.5017 178.769 26.142 178.995 26.686C179.233 27.23 179.568 27.6494 179.998 27.944C180.429 28.2274 180.939 28.369 181.528 28.369Z" fill="#666666"/>
</svg>
