<svg width="113" height="46" viewBox="0 0 113 46" fill="none" xmlns="http://www.w3.org/2000/svg">
<path d="M51.98 42.1667H4.52002V45.2333H51.98V42.1667Z" fill="black"/>
<path d="M4.52002 16.8458H12.2956L16.6341 28.2065H16.6588L20.8995 16.8458H28.3586V33.1681H23.679V20.0952H23.6297L18.5597 33.1681H14.1965L9.10179 20.0952H9.05332V33.1681H4.52002V16.8458Z" fill="black"/>
<path d="M37.9751 24.6845L30.6632 16.8467H36.7079L41.4853 22.2288L45.9948 16.8467H51.4058L44.093 24.8594L51.6491 33.169H45.6044L40.6807 27.3895L36.0011 33.169H30.4199L37.976 24.6854L37.9751 24.6845Z" fill="black"/>
<path d="M107.726 26.3554H104.379V16.8458H97.6845V26.3554H89.5609V22.0576C89.5609 20.9876 89.9768 20.0172 90.6501 19.2997L101.621 7.75146L96.79 2.83478L85.819 14.383C83.9101 16.3588 82.731 19.0674 82.731 22.0576V33.1681H97.6854V45.6392H104.38V33.1681H107.727V26.3554H107.726Z" fill="black"/>
<path d="M68.5988 2.01953C62.6572 2.01953 57.841 6.92097 57.841 12.9677V16.8458H64.6718V12.9677C64.6718 10.7605 66.4299 8.97123 68.5988 8.97123C70.7676 8.97123 72.5258 10.7605 72.5258 12.9677V16.8458C72.5258 17.9158 72.1098 18.8862 71.4365 19.6037L60.4654 31.1519C58.5566 33.1277 57.3774 35.8363 57.3774 38.8265V45.6392H78.9124V38.8265H64.2082C64.2082 37.7565 64.6242 36.7861 65.2975 36.0686L76.2686 24.5204C78.1774 22.5446 79.3566 19.836 79.3566 16.8458V12.9677C79.3566 6.92097 74.5404 2.01953 68.5988 2.01953Z" fill="black"/>
</svg>
